8_ID_stride6.mot
nRows=6
nColumns=38

name 8_ID_stride6.mot
datacolumns 38
datarows 6
range 3.2400000000 3.2650000000
endheader
time	pelvis_tilt_moment	pelvis_list_moment	pelvis_rotation_moment	pelvis_tx_force	pelvis_ty_force	pelvis_tz_force	hip_flexion_r_moment	hip_adduction_r_moment	hip_rotation_r_moment	knee_angle_r_moment	ankle_angle_r_moment	subtalar_angle_r_moment	mtp_angle_r_moment	hip_flexion_l_moment	hip_adduction_l_moment	hip_rotation_l_moment	knee_angle_l_moment	ankle_angle_l_moment	subtalar_angle_l_moment	mtp_angle_l_moment	lumbar_extension_moment	lumbar_bending_moment	lumbar_rotation_moment	arm_flex_r_moment	arm_add_r_moment	arm_rot_r_moment	elbow_flex_r_moment	pro_sup_r_moment	wrist_flex_r_moment	wrist_dev_r_moment	arm_flex_l_moment	arm_add_l_moment	arm_rot_l_moment	elbow_flex_l_moment	pro_sup_l_moment	wrist_flex_l_moment	wrist_dev_l_moment
        3.2400000000	      -19.5630731153	        6.3250811909	        1.3993193043	      101.2092626588	      232.5525598345	      113.0681641459	       68.0107025743	        9.8366849492	       -1.5404225761	       19.4042552010	        4.5987431926	       -0.4627470023	        0.2232917525	      -53.4231708317	       12.6922517017	       -0.5377636668	      -39.6158607879	        5.8766066790	       -4.3286275934	        0.0727422954	       -2.5758379384	       14.2449222782	       -9.8067670351	       -7.7695247276	       -1.9157319004	       -0.6478696041	       -1.8087021372	        0.0070921535	       -0.1041403765	        0.1922608019	       -6.2348664933	        1.6603263042	        2.0539546074	       -1.5674651123	        0.0877770567	        0.1753633284	        0.2377215139	
        3.2450000000	      -32.1217017948	       51.7999719499	       18.7717956167	      122.7063640926	      349.3815914511	       80.3490899527	       67.4691292332	        8.8370772922	       -1.7616832627	       19.2543975720	        4.5334089789	       -0.4093064858	        0.2198408709	      -27.8947561101	       -5.9690418194	       -3.6526656926	      -17.3732045604	       14.7634562938	       -6.3557828705	        0.1790400804	       17.0260394011	       21.7207456022	       -2.8912168840	       -7.6668046419	       -1.0453144095	        0.1914605669	       -0.7101442021	        0.0099243509	        0.0097808953	        0.1216732758	       -7.6562194632	        1.2983878167	        1.6097027416	       -0.6082158560	        0.0520563603	        0.1435005810	        0.1435792708	
        3.2500000000	      -40.0499741709	       72.7168790915	       37.4795648552	      127.1875461486	      391.1098227603	       33.1355021046	       68.5008504537	        8.1430316494	       -1.7849519365	       18.8838594883	        4.5120372142	       -0.3921030430	        0.2189243101	      -23.4103773599	      -26.5616760738	       -7.9494620417	       -1.6263567803	       20.0614672534	       -6.9604380599	        0.2808790768	       35.2212371716	       26.8918607990	        3.4276510724	       -6.9026634817	       -0.1691025666	        0.9154770730	        0.6368447422	        0.0092110972	        0.1157321473	        0.0211383372	       -8.1288862035	        1.0039026985	        1.1449985765	        0.6030356774	        0.0116031223	        0.1144377185	        0.0225885693	
        3.2550000000	      -41.6500289350	       76.8451631807	       55.1879274332	      104.5550486596	      354.4560724892	      -34.0468843184	       72.8453326779	        7.7954002952	       -1.5760809581	       18.7693366037	        4.5112172114	       -0.3942968816	        0.2191047028	      -41.4891745266	      -46.1816322116	      -15.6051801142	        8.8985229643	       20.8815117859	       -7.2896360338	        0.3621821784	       45.2659873959	       28.1512480102	        8.2222610704	       -5.3872508950	        0.6744858198	        1.4548046725	        1.8701705238	        0.0024931114	        0.1971506118	       -0.0769095826	       -7.7774121675	        0.6774728052	        0.6457721608	        1.7141283008	       -0.0270012129	        0.0828217316	       -0.0925525806	
        3.2600000000	      -26.9711522567	       50.0613904119	       68.8551803455	       57.1287521462	      207.1289815214	     -103.1218467218	       78.3173468084	        7.6882503918	       -1.2873026965	       19.4289796184	        4.5162869745	       -0.4156616506	        0.2190922110	      -80.7917284080	      -60.2315166693	      -26.3045117989	       12.5512111744	       11.4997153321	       -7.5960037077	        0.4165366643	       43.5329564481	       21.0973875970	       11.1325872987	       -3.4452279645	        1.4711235099	        1.8155383748	        2.7584960156	       -0.0029787925	        0.2497513130	       -0.1505749999	       -6.3952658426	        0.1983069119	        0.1107434848	        2.5011911684	       -0.0588688123	        0.0443822405	       -0.1794450435	
        3.2650000000	       -1.9878874752	        7.6016305591	       74.6162251966	       -0.2663421773	        8.3792510166	     -145.6372525581	       82.5841610107	        7.5472902060	       -1.0459765629	       20.6491607651	        4.5081300335	       -0.4351972052	        0.2185495172	     -127.6182099783	      -62.9460419047	      -37.8864977931	       14.4140078065	       -3.9073900768	       -8.4894900873	        0.4252234341	       37.1536982681	        9.1793453897	       11.4758374889	       -1.4943528290	        2.1531475843	        1.9167929073	        3.1766316212	       -0.0070327141	        0.2590293694	       -0.1896946640	       -4.5341515417	       -0.3617466616	       -0.3772164229	        2.8389544840	       -0.0800221894	        0.0061833493	       -0.2255592938	
